<?xml version="1.0" standalone="no"?>
<!DOCTYPE svg PUBLIC "-//W3C//DTD SVG 20010904//EN"
 "http://www.w3.org/TR/2001/REC-SVG-20010904/DTD/svg10.dtd">
<svg version="1.0" xmlns="http://www.w3.org/2000/svg"
 width="2000.000000pt" height="1500.000000pt" viewBox="0 0 2000.000000 1500.000000"
 preserveAspectRatio="xMidYMid meet">

<g transform="translate(0.000000,1500.000000) scale(0.100000,-0.100000)"
fill="#000000" stroke="none">
<path d="M0 7500 l0 -7500 10000 0 10000 0 0 7500 0 7500 -10000 0 -10000 0 0
-7500z m7658 4665 c820 -85 1566 -363 2233 -831 132 -93 319 -242 319 -255 0
-5 -84 -9 -206 -9 l-205 0 -157 104 c-349 232 -668 388 -1052 517 -1448 484
-3046 183 -4220 -795 -637 -531 -1124 -1249 -1375 -2028 -581 -1806 42 -3764
1560 -4900 640 -479 1373 -764 2195 -854 213 -24 676 -24 888 -1 341 38 647
105 952 206 384 129 703 285 1052 517 l157 104 205 0 c118 0 206 -4 206 -9 0
-25 -335 -273 -538 -399 -622 -386 -1283 -611 -2014 -687 -172 -18 -711 -21
-883 -5 -962 89 -1845 456 -2595 1079 -154 128 -452 426 -581 582 -135 163
-271 351 -387 536 -103 165 -306 566 -375 743 -435 1114 -435 2347 -1 3448 59
148 211 464 294 607 210 367 442 668 755 980 188 188 330 313 525 457 635 472
1404 780 2185 878 224 27 204 26 578 28 243 2 379 -2 485 -13z m4500 -1781
c24 -17 28 -44 11 -76 -6 -11 -54 -40 -107 -65 -95 -44 -198 -110 -188 -121 3
-3 71 -27 151 -53 182 -60 265 -101 326 -160 51 -50 99 -133 99 -173 0 -34
-32 -50 -84 -42 -22 4 -104 25 -181 47 -138 39 -331 82 -432 95 l-53 7 -21
-49 c-79 -185 -206 -605 -364 -1199 -58 -220 -109 -408 -112 -419 -6 -22 -26
-25 257 34 181 38 221 43 340 44 110 0 141 -3 167 -17 35 -19 49 -52 39 -91
-8 -31 -31 -39 -74 -25 -67 22 -249 5 -424 -39 -185 -47 -271 -84 -330 -144
-37 -36 -52 -65 -97 -188 -224 -599 -529 -1219 -804 -1630 -357 -534 -712
-902 -1152 -1195 -442 -295 -827 -382 -1165 -263 -112 39 -183 84 -253 157
-107 112 -157 257 -157 457 0 231 71 449 231 707 176 283 523 655 894 958 518
423 1177 778 1900 1024 94 32 175 63 182 69 6 6 23 49 38 96 301 964 425 1297
643 1723 5 10 -364 9 -514 -3 -704 -55 -1167 -174 -1492 -386 -245 -159 -376
-396 -341 -617 26 -161 134 -274 401 -416 101 -55 152 -100 141 -127 -13 -34
-184 14 -301 85 -192 116 -336 269 -391 416 -33 88 -64 299 -58 391 30 435
403 760 1057 924 469 117 971 140 1542 69 l167 -21 68 60 c103 90 201 147 288
165 50 11 132 6 153 -9z"/>
<path d="M10615 7831 c-188 -66 -434 -169 -630 -266 -638 -313 -1130 -707
-1565 -1255 -283 -356 -440 -703 -440 -970 1 -224 79 -379 228 -448 49 -23 73
-27 172 -30 81 -3 135 1 184 12 249 58 508 239 767 534 384 438 779 1068 1072
1712 133 292 314 741 299 739 -4 0 -43 -13 -87 -28z"/>
</g>
</svg>
